<svg xmlns="http://www.w3.org/2000/svg" version="1.1" xmlns:xlink="http://www.w3.org/1999/xlink" xmlns:svgjs="http://svgjs.com/svgjs" width="1440" height="560" preserveAspectRatio="none" viewBox="0 0 1440 560"><g mask="url(&quot;#SvgjsMask1310&quot;)" fill="none"><rect width="1440" height="560" x="0" y="0" fill="url(#SvgjsLinearGradient1311)"></rect><path d="M 0,23 C 72,53.2 216,161.4 360,174 C 504,186.6 576,73 720,86 C 864,99 936,243.6 1080,239 C 1224,234.4 1368,98.2 1440,63L1440 560L0 560z" fill="rgba(12, 66, 42, 1)"></path><path d="M 0,468 C 96,440.8 288,323.8 480,332 C 672,340.2 768,497.6 960,509 C 1152,520.4 1344,413 1440,389L1440 560L0 560z" fill="rgba(111, 204, 146, 1)"></path></g><defs><mask id="SvgjsMask1310"><rect width="1440" height="560" fill="#ffffff"></rect></mask><linearGradient x1="50%" y1="100%" x2="50%" y2="0%" gradientUnits="userSpaceOnUse" id="SvgjsLinearGradient1311"><stop stop-color="#0e2a47" offset="0"></stop><stop stop-color="rgba(0, 158, 83, 1)" offset="1"></stop></linearGradient></defs></svg>